<svg width="50" height="50" viewBox="0 0 50 50" fill="none" xmlns="http://www.w3.org/2000/svg">
<path d="M27.5 0V7.59398C35.975 8.82205 42.5 16.0902 42.5 24.9373C42.5 27.193 42.05 29.3233 41.3 31.3033L47.8 35.1378C49.2 32.0301 50 28.5714 50 24.9373C50 11.9549 40.125 1.25313 27.5 0ZM25 42.4812C15.325 42.4812 7.5 34.6366 7.5 24.9373C7.5 16.0902 14.025 8.82205 22.5 7.59398V0C9.85 1.25313 0 11.9298 0 24.9373C0 38.7719 11.175 50 24.975 50C33.25 50 40.575 45.9649 45.125 39.7494L38.625 35.9148C36.9941 37.9676 34.9215 39.6244 32.5622 40.7614C30.2029 41.8985 27.6178 42.4864 25 42.4812Z" fill="black"/>
</svg>
