<svg width="11" height="11" viewBox="0 0 11 11" fill="none" xmlns="http://www.w3.org/2000/svg">
<path d="M5.66663 10.6665C4.97496 10.6665 4.32496 10.5352 3.71663 10.2725C3.10829 10.0102 2.57913 9.654 2.12913 9.204C1.67913 8.754 1.32296 8.22484 1.06063 7.6165C0.797959 7.00817 0.666626 6.35817 0.666626 5.6665C0.666626 4.97484 0.797959 4.32484 1.06063 3.7165C1.32296 3.10817 1.67913 2.579 2.12913 2.129C2.57913 1.679 3.10829 1.32267 3.71663 1.06C4.32496 0.797671 4.97496 0.666504 5.66663 0.666504C6.35829 0.666504 7.00829 0.797671 7.61663 1.06C8.22496 1.32267 8.75413 1.679 9.20413 2.129C9.65413 2.579 10.0103 3.10817 10.2726 3.7165C10.5353 4.32484 10.6666 4.97484 10.6666 5.6665C10.6666 6.35817 10.5353 7.00817 10.2726 7.6165C10.0103 8.22484 9.65413 8.754 9.20413 9.204C8.75413 9.654 8.22496 10.0102 7.61663 10.2725C7.00829 10.5352 6.35829 10.6665 5.66663 10.6665ZM5.66663 9.6665C6.78329 9.6665 7.72913 9.279 8.50413 8.504C9.27913 7.729 9.66663 6.78317 9.66663 5.6665C9.66663 4.54984 9.27913 3.604 8.50413 2.829C7.72913 2.054 6.78329 1.6665 5.66663 1.6665C4.54996 1.6665 3.60413 2.054 2.82913 2.829C2.05413 3.604 1.66663 4.54984 1.66663 5.6665C1.66663 6.78317 2.05413 7.729 2.82913 8.504C3.60413 9.279 4.54996 9.6665 5.66663 9.6665Z" fill="#0139FC"/>
</svg>
