<svg width="20" height="20" viewBox="0 0 20 20" fill="none" xmlns="http://www.w3.org/2000/svg">
<path d="M9.16663 14.1665H10.8333V10.8332H14.1666V9.1665H10.8333V5.83317H9.16663V9.1665H5.83329V10.8332H9.16663V14.1665ZM9.99996 18.3332C8.84718 18.3332 7.76385 18.1143 6.74996 17.6765C5.73607 17.2393 4.85413 16.6457 4.10413 15.8957C3.35413 15.1457 2.76051 14.2637 2.32329 13.2498C1.88551 12.2359 1.66663 11.1526 1.66663 9.99984C1.66663 8.84706 1.88551 7.76373 2.32329 6.74984C2.76051 5.73595 3.35413 4.854 4.10413 4.104C4.85413 3.354 5.73607 2.76011 6.74996 2.32234C7.76385 1.88511 8.84718 1.6665 9.99996 1.6665C11.1527 1.6665 12.2361 1.88511 13.25 2.32234C14.2638 2.76011 15.1458 3.354 15.8958 4.104C16.6458 4.854 17.2394 5.73595 17.6766 6.74984C18.1144 7.76373 18.3333 8.84706 18.3333 9.99984C18.3333 11.1526 18.1144 12.2359 17.6766 13.2498C17.2394 14.2637 16.6458 15.1457 15.8958 15.8957C15.1458 16.6457 14.2638 17.2393 13.25 17.6765C12.2361 18.1143 11.1527 18.3332 9.99996 18.3332ZM9.99996 16.6665C11.8611 16.6665 13.4375 16.0207 14.7291 14.729C16.0208 13.4373 16.6666 11.8609 16.6666 9.99984C16.6666 8.13873 16.0208 6.56234 14.7291 5.27067C13.4375 3.979 11.8611 3.33317 9.99996 3.33317C8.13885 3.33317 6.56246 3.979 5.27079 5.27067C3.97913 6.56234 3.33329 8.13873 3.33329 9.99984C3.33329 11.8609 3.97913 13.4373 5.27079 14.729C6.56246 16.0207 8.13885 16.6665 9.99996 16.6665Z" fill="#0139FC"/>
</svg>
